<svg width="61" height="44" viewBox="0 0 61 44" fill="none" xmlns="http://www.w3.org/2000/svg">
<g id="logotype" clip-path="url(#clip0_466_206)">
<g id="Capa 1">
<g id="Group">
<g id="Group_2">
<path id="Vector" d="M11.9944 11.9019L27.9859 44H41.3127L18.2939 0L11.9944 11.9019Z" fill="white"/>
<path id="Vector_2" d="M6.9662 44C10.8135 44 13.9324 40.9052 13.9324 37.0875C13.9324 33.2699 10.8135 30.175 6.9662 30.175C3.11887 30.175 0 33.2699 0 37.0875C0 40.9052 3.11887 44 6.9662 44Z" fill="white"/>
</g>
<path id="Vector_3" d="M48.461 6.73269C50.6781 13.7327 49.6616 19.6106 47.7343 22.1202C45.7962 24.6452 39.3746 29.3337 39.3746 29.3337L47.7343 43.8798L61 43.9404L60.374 43.0183C58.2887 39.9481 56.339 36.7894 54.5289 33.551L49.8544 25.1865C49.8544 25.1865 52.0347 25.4269 56.2751 21.8202C57.3352 20.9183 58.1114 19.7952 58.6792 18.6173C60.8759 14.0625 59.749 8.62019 56.0571 5.14519C55.4611 4.58462 54.7896 4.025 54.0338 3.48654C54.0338 3.48654 49.1267 0.180769 45.3718 1.2625C45.3718 1.2625 47.7953 4.62885 48.461 6.73269Z" fill="white"/>
</g>
</g>
</g>
<defs>
<clipPath id="clip0_466_206">
<rect width="61" height="44" fill="white"/>
</clipPath>
</defs>
</svg>
